<?xml version="1.0" encoding="UTF-8"?>
<!DOCTYPE svg PUBLIC "-//W3C//DTD SVG 1.1//EN" "http://www.w3.org/Graphics/SVG/1.1/DTD/svg11.dtd">
<!-- Creator: CorelDRAW -->
<svg xmlns="http://www.w3.org/2000/svg" xml:space="preserve" width="170px" height="119px" style="shape-rendering:geometricPrecision; text-rendering:geometricPrecision; image-rendering:optimizeQuality; fill-rule:evenodd; clip-rule:evenodd"
viewBox="0 0 134.004 93.4411"
 xmlns:xlink="http://www.w3.org/1999/xlink">
 <defs>
  <style type="text/css">
    .str0 {stroke:black;stroke-width:0.167571}
    .str1 {stroke:#0F294C;stroke-width:0.167571}
    .str2 {stroke:#0F294C;stroke-width:0.39568}
    .fil1 {fill:none}
    .fil2 {fill:#0F294C}
    .fil0 {fill:#FFC600}
    .fil3 {fill:#0F294C;fill-rule:nonzero}
   </style>
 </defs>
 <g id="Layer_x0020_1">
  <metadata id="CorelCorpID_0Corel-Layer"/>
  <rect class="fil0" x="-4.27797e-005" y="35.3018" width="134.004" height="58.1393"/>
  <g id="_236366576">
   <line id="_236361584" class="fil1 str0" x1="66.7689" y1="0.19329" x2="115.623" y2= "19.9356"/>
  </g>
  <g id="_236365088">
   <line id="_236363696" class="fil1 str1" x1="66.6988" y1="0.213272" x2="17.7896" y2= "19.9358"/>
  </g>
  <g id="_236367512">
   <line id="_236360264" class="fil1 str1" x1="66.7139" y1="39.7443" x2="115.623" y2= "19.9356"/>
  </g>
  <g id="_31581272">
   <line id="_236361200" class="fil1 str1" x1="66.7139" y1="39.7443" x2="17.7896" y2= "19.9358" />
  </g>
  <polygon class="fil2 str2" points="66.6988,0.213272 115.623,19.9356 66.7139,39.7443 17.7896,19.9358 "/>
  <path class="fil2 str2" d="M66.7841 53.4602c-14.945,-10.5728 -17.6038,-10.9429 -31.8309,-12.7302l0 -11.9689 31.8309 12.8877 0 11.8114z"/>
  <path class="fil2 str2" d="M66.7364 53.4451c14.945,-10.5728 17.6038,-10.9429 31.8309,-12.7302l0 -11.9689 -31.8309 12.8877 0 11.8114z"/>
  <polygon class="fil2 str2" points="105.382,41.8958 103.336,41.8954 103.336,26.783 105.399,25.9339 "/>
  <ellipse class="fil2 str2" cx="104.398" cy="45.0567" rx="3.35003" ry="3.5176"/>
  <path class="fil2 str2" d="M101.738 49.0572c0,-0.659995 5.36008,-0.659995 5.36008,0l0 7.43879 -5.36008 0 0 -7.43879z"/>
  <path class="fil3" d="M27.1355 63.0744c0,1.99759 -0.0413486,3.40878 -0.124441,4.23793 -0.0868518,0.833302 -0.35077,1.59123 -0.795911,2.27813 -0.44514,0.686703 -1.04855,1.21434 -1.80687,1.58292 -0.757925,0.368378 -1.64445,0.552765 -2.65165,0.552765 -0.957942,0 -1.81795,-0.17588 -2.58003,-0.523485 -0.765839,-0.347605 -1.37677,-0.866935 -1.8407,-1.56195 -0.464133,-0.69521 -0.739328,-1.45314 -0.829939,-2.26982 -0.086654,-0.820641 -0.131959,-2.25281 -0.131959,-4.29649l0 -3.39612c0,-1.99739 0.0415464,-3.40878 0.1282,-4.24209 0.0830928,-0.829148 0.347012,-1.58707 0.795911,-2.27378 0.44514,-0.686901 1.04479,-1.21454 1.80687,-1.58292 0.758123,-0.368576 1.64069,-0.552765 2.65165,-0.552765 0.95814,0 1.81815,0.17588 2.58003,0.523485 0.76208,0.347407 1.37677,0.866737 1.8407,1.56195 0.464133,0.695012 0.739328,1.45314 0.82618,2.26962 0.0906108,0.820839 0.131959,2.24885 0.131959,4.29649l0 3.39612zm-4.65082 -6.52417c0,-0.925496 -0.0453054,-1.51605 -0.139675,-1.77561 -0.0904129,-0.255412 -0.278955,-0.385195 -0.565823,-0.385195 -0.245124,0 -0.429907,0.104657 -0.558305,0.313972 -0.131761,0.20516 -0.195862,0.820839 -0.195862,1.84684l0 9.27138c0,1.15578 0.0451075,1.86761 0.128003,2.13568 0.0830928,0.27203 0.283109,0.406166 0.592333,0.406166 0.31694,0 0.516758,-0.154909 0.607171,-0.464924 0.0868518,-0.313972 0.132157,-1.05112 0.132157,-2.22352l0 -9.12478z"/>
  <path id="1" class="fil3" d="M33.0476 68.7114l0 -6.46858c0,-0.566614 -0.014838,-0.915208 -0.0411507,-1.04875 -0.0644959,-0.293001 -0.219998,-0.439601 -0.466309,-0.439601 -0.252444,0 -0.407946,0.149765 -0.472442,0.446129 -0.0294782,0.140071 -0.0411507,0.488665 -0.0411507,1.04222l0 6.05826c0,0.726271 0.170142,1.08772 0.513593,1.08772 0.340087,0 0.50746,-0.224746 0.50746,-0.677404zm0.8244 -10.0675c1.65157,0 2.51435,0.742494 2.58755,2.22451 0.0352155,0.706883 0.0528233,1.48202 0.0528233,2.32878l0 3.09105c0,1.42979 -0.0850712,2.40692 -0.258181,2.92803 -0.50469,1.47213 -1.75148,2.20493 -3.73759,2.20493 -0.745264,0 -1.23235,-0.0130574 -1.46125,-0.0389745 -0.483917,-0.0684527 -0.891863,-0.231275 -1.22918,-0.485302 -0.539708,-0.413684 -0.8976,-0.977132 -1.07665,-1.69054 -0.126222,-0.521111 -0.18775,-1.35164 -0.18775,-2.48823l0 -7.43265c0,-1.05192 0.313774,-1.9054 0.944686,-2.56322 0.630714,-0.658016 1.45215,-0.987024 2.46726,-0.987024 0.425356,0 1.03273,0.0326436 1.82191,0.0945676 0.792152,0.0650894 1.30851,0.0943697 1.55483,0.0943697 0.305267,0 0.563449,-0.0358091 0.774544,-0.113956l0 1.99324c-0.281526,0.0912043 -0.504492,0.133542 -0.668699,0.133542 -0.311005,0 -0.751199,-0.0227516 -1.32038,-0.0747836 -0.568988,-0.0522298 -0.979704,-0.0749814 -1.22621,-0.0749814 -0.469475,0 -0.757134,0.247498 -0.868518,0.742692 -0.0322479,0.146402 -0.0498557,0.55692 -0.0498557,1.23116 0.548808,-0.742692 1.17656,-1.1172 1.88067,-1.1172z"/>
  <path id="12" class="fil3" d="M41.2827 58.644l-0.0585607 1.1172c0.308037,-0.452856 0.648322,-0.788195 1.02085,-1.00978 0.372731,-0.224746 0.780479,-0.335537 1.22048,-0.335537 0.539906,0 1.00344,0.159657 1.39655,0.482136 0.393108,0.322479 0.639617,0.690462 0.736361,1.11067 0.0967438,0.420212 0.1466,1.13343 0.1466,2.13667l0 5.33496c0,1.15301 -0.0615283,1.97049 -0.184783,2.45915 -0.123254,0.485302 -0.3755,0.87287 -0.756936,1.16271 -0.381238,0.289836 -0.842007,0.433072 -1.37895,0.433072 -0.431094,0 -0.830137,-0.110593 -1.19693,-0.332174 -0.366796,-0.224746 -0.701145,-0.553754 -1.00325,-0.993355l0 2.90212 -3.47368 0 0 -14.4678 3.53224 0zm0.988607 3.68378c0,-0.781864 -0.0263127,-1.25727 -0.0761684,-1.4201 -0.0528233,-0.166186 -0.196653,-0.250861 -0.431291,-0.250861 -0.228703,0 -0.3755,0.097733 -0.442964,0.28667 -0.0644959,0.192103 -0.0967438,0.654653 -0.0967438,1.38429l0 5.24692c0,0.765443 0.0322479,1.24105 0.102679,1.43315 0.0674635,0.192103 0.217031,0.28667 0.445734,0.28667 0.223164,0 0.364026,-0.0880388 0.416651,-0.263919 0.0557909,-0.172517 0.0821036,-0.599258 0.0821036,-1.2735l0 -5.42933z"/>
  <path id="123" class="fil3" d="M49.9904 63.549l-3.25961 0 0 -0.850119c0,-0.977132 0.102679,-1.73268 0.305069,-2.26349 0.205556,-0.531003 0.613106,-1.00325 1.22641,-1.4104 0.613106,-0.407155 1.40823,-0.60915 2.38813,-0.60915 1.17636,0 2.05952,0.231275 2.65501,0.69066 0.598466,0.462352 0.956557,1.02916 1.07684,1.70004 0.120287,0.671074 0.178847,2.052 0.178847,4.14633l0 6.35443 -3.37673 0 0 -1.1269c-0.211293,0.452658 -0.487082,0.79136 -0.82163,1.01611 -0.33435,0.22811 -0.733195,0.338702 -1.1999,0.338702 -0.607171,0 -1.16468,-0.188739 -1.67214,-0.566614 -0.50469,-0.377875 -0.759904,-1.20841 -0.759904,-2.48507l0 -1.04242c0,-0.947654 0.134927,-1.59261 0.404781,-1.93468 0.270052,-0.345231 0.935981,-0.745857 2.00372,-1.20168 1.13837,-0.498359 1.74871,-0.830731 1.83081,-1.00325 0.0793339,-0.172714 0.120287,-0.521111 0.120287,-1.04875 0,-0.661182 -0.0468881,-1.09445 -0.134927,-1.29308 -0.0880388,-0.201995 -0.234638,-0.302893 -0.442964,-0.302893 -0.234836,0 -0.381436,0.0846756 -0.437227,0.254027 -0.0585607,0.169351 -0.0848734,0.605786 -0.0848734,1.31267l0 1.32553zm1.09999 1.73605c-0.557513,0.452658 -0.880191,0.830533 -0.968229,1.13659 -0.0880388,0.306256 -0.131761,0.746055 -0.131761,1.31603 0,0.654653 0.0379853,1.07803 0.114352,1.27013 0.0761684,0.192103 0.231671,0.28667 0.460374,0.28667 0.217228,0 0.358091,-0.0749814 0.425554,-0.224746 0.0644959,-0.149765 0.0997114,-0.543862 0.0997114,-1.17913l0 -2.60555z"/>
  <path id="1234" class="fil3" d="M61.9103 64.523c0.542873,0.192103 0.944686,0.472244 1.20287,0.840227 0.258379,0.367983 0.387371,0.944489 0.387371,1.72615 0,0.86654 -0.0587585,1.49508 -0.17311,1.88581 -0.114352,0.390932 -0.337515,0.788393 -0.66593,1.19218 -0.328612,0.403792 -0.780479,0.693825 -1.35263,0.87287 -0.574923,0.179045 -1.21157,0.267084 -1.90975,0.267084 -1.39082,0 -2.36755,-0.302893 -2.9221,-0.905514 -0.554546,-0.605786 -0.833302,-1.7034 -0.833302,-3.29285l0 -0.924902 3.29186 0 0 1.78472c0,0.635265 0.199423,0.954381 0.601434,0.954381 0.211293,0 0.372533,-0.0912043 0.486884,-0.273613 0.111582,-0.182409 0.167373,-0.657818 0.167373,-1.42662l0 -0.801252c0,-0.367983 -0.111582,-0.622009 -0.337317,-0.76208 -0.223164,-0.140071 -0.686703,-0.211689 -1.39082,-0.211689l0 -1.8043 0.267084 0c0.486884,0 0.803824,-0.009892 0.953391,-0.0360069 0.149567,-0.0259171 0.269854,-0.117121 0.363828,-0.273415 0.0967438,-0.156492 0.14383,-0.417047 0.14383,-0.785029l0 -0.267084c0,-0.543862 -0.0530211,-0.885928 -0.161438,-1.03253 -0.105647,-0.1466 -0.258181,-0.218218 -0.457604,-0.218218 -0.425554,0 -0.636649,0.280142 -0.636649,0.840425l0 1.02916 -3.29186 0 0 -0.563449c0,-1.33542 0.293397,-2.28644 0.880191,-2.84672 0.586794,-0.563449 1.56966,-0.846756 2.94564,-0.846756 1.31722,0 2.29415,0.27025 2.9308,0.810947 0.633682,0.540697 0.953589,1.37776 0.953589,2.51118 0,0.76208 -0.102679,1.33206 -0.311005,1.7034 -0.205556,0.371346 -0.583826,0.654653 -1.13263,0.853482z"/>
  <path id="12345" class="fil3" d="M72.4985 63.093l0 3.10075c0,1.13679 -0.0530211,1.97385 -0.1557,2.50466 -0.102481,0.531003 -0.322677,1.026 -0.662962,1.48855 -0.337317,0.459187 -0.771576,0.801252 -1.29981,1.01947 -0.530805,0.221383 -1.14114,0.32881 -1.82765,0.32881 -0.768609,0 -1.41713,-0.0912043 -1.9509,-0.279944 -0.53397,-0.188937 -0.947654,-0.472442 -1.24105,-0.850119 -0.296364,-0.377875 -0.50746,-0.837061 -0.633682,-1.37459 -0.126222,-0.537334 -0.187948,-1.34175 -0.187948,-2.41662l0 -3.24735c0,-1.17576 0.114747,-2.09434 0.34345,-2.75532 0.228901,-0.661182 0.642387,-1.19218 1.23808,-1.59281 0.595499,-0.400626 1.35817,-0.602621 2.28545,-0.602621 0.780281,0 1.44918,0.130377 2.00649,0.387767 0.560481,0.257192 0.991772,0.592729 1.29407,1.00641 0.305069,0.413486 0.510427,0.840227 0.624779,1.27666 0.111582,0.439799 0.167373,1.10751 0.167373,2.0063zm-3.47387 -0.954183c0,-0.651487 -0.0322479,-1.05864 -0.0937762,-1.22799 -0.0644959,-0.169351 -0.199423,-0.254027 -0.404781,-0.254027 -0.205556,0 -0.343253,0.0846756 -0.410716,0.254027 -0.0704311,0.169351 -0.105647,0.576506 -0.105647,1.22799l0 5.71283c0,0.599258 0.0352155,0.99019 0.105647,1.16923 0.0674635,0.182409 0.20239,0.273613 0.401813,0.273613 0.208326,0 0.343253,-0.0846756 0.407946,-0.247498 0.0672656,-0.166186 0.0995136,-0.524474 0.0995136,-1.06834l0 -5.83984z"/>
  <path id="123456" class="fil3" d="M81.684 67.9688c0,1.28992 -0.252246,2.16932 -0.759904,2.6382 -0.50746,0.465913 -1.60745,0.700354 -3.30611,0.700354l-3.97837 0 0 -12.6633 4.09865 0c1.40506,0 2.37329,0.257192 2.90132,0.775137 0.531003,0.514582 0.795119,1.39398 0.795119,2.64156 0,1.43296 -0.668897,2.24727 -2.00966,2.44273 0.698178,0.127013 1.24976,0.429907 1.65473,0.911845 0.401813,0.478773 0.604204,1.08139 0.604204,1.80766l0 0.745857zm-4.59721 -4.61838c0.525265,0 0.847943,-0.0749814 0.965262,-0.221581 0.117517,-0.146402 0.176078,-0.436435 0.176078,-0.866342 0,-0.364817 -0.0644959,-0.615481 -0.196653,-0.755551 -0.131959,-0.140071 -0.445932,-0.208523 -0.944686,-0.208523l0 2.052zm1.14134 4.02565l0 -0.429907c0,-0.547226 -0.0644959,-0.889093 -0.196653,-1.026 -0.131959,-0.136708 -0.445932,-0.20516 -0.944686,-0.20516l0 2.9314c0.463539,0 0.768609,-0.0749814 0.918374,-0.224746 0.149567,-0.149963 0.222966,-0.498359 0.222966,-1.04558z"/>
  <path id="1234567" class="fil3" d="M85.7943 63.549l-3.25961 0 0 -0.850119c0,-0.977132 0.102679,-1.73268 0.305069,-2.26349 0.205556,-0.531003 0.613106,-1.00325 1.22641,-1.4104 0.613106,-0.407155 1.40823,-0.60915 2.38813,-0.60915 1.17636,0 2.05952,0.231275 2.65501,0.69066 0.598466,0.462352 0.956557,1.02916 1.07684,1.70004 0.120287,0.671074 0.178847,2.052 0.178847,4.14633l0 6.35443 -3.37673 0 0 -1.1269c-0.211293,0.452658 -0.487082,0.79136 -0.82163,1.01611 -0.33435,0.22811 -0.733195,0.338702 -1.1999,0.338702 -0.607171,0 -1.16468,-0.188739 -1.67214,-0.566614 -0.50469,-0.377875 -0.759904,-1.20841 -0.759904,-2.48507l0 -1.04242c0,-0.947654 0.134927,-1.59261 0.404781,-1.93468 0.270052,-0.345231 0.935981,-0.745857 2.00372,-1.20168 1.13837,-0.498359 1.74871,-0.830731 1.83081,-1.00325 0.0793339,-0.172714 0.120287,-0.521111 0.120287,-1.04875 0,-0.661182 -0.0468881,-1.09445 -0.134927,-1.29308 -0.0880388,-0.201995 -0.234638,-0.302893 -0.442964,-0.302893 -0.234836,0 -0.381436,0.0846756 -0.437227,0.254027 -0.0585607,0.169351 -0.0848734,0.605786 -0.0848734,1.31267l0 1.32553zm1.09999 1.73605c-0.557513,0.452658 -0.880191,0.830533 -0.968229,1.13659 -0.0880388,0.306256 -0.131761,0.746055 -0.131761,1.31603 0,0.654653 0.0379853,1.07803 0.114352,1.27013 0.0761684,0.192103 0.231671,0.28667 0.460374,0.28667 0.217228,0 0.358091,-0.0749814 0.425554,-0.224746 0.0644959,-0.149765 0.0997114,-0.543862 0.0997114,-1.17913l0 -2.60555z"/>
  <polygon id="12345678" class="fil3" points="99.7063,71.3073 96.2532,71.3073 96.2532,66.6401 95.0064,66.6401 95.0064,71.3073 91.5592,71.3073 91.5592,58.644 95.0064,58.644 95.0064,63.1972 96.2532,63.1972 96.2532,58.644 99.7063,58.644 "/>
  <polygon id="123456789" class="fil3" points="109.549,71.3073 106.521,71.3073 106.521,64.4642 104.107,71.3073 100.944,71.3073 100.944,58.644 103.969,58.644 103.969,65.4283 106.343,58.644 109.549,58.644 "/>
  <path id="12345678910" class="fil3" d="M118.65 65.2004l-4.4975 0 0 2.7391c0,0.573341 0.0379853,0.941323 0.111384,1.10751 0.0763663,0.162822 0.220196,0.247498 0.431291,0.247498 0.264117,0 0.439996,-0.11079 0.528035,-0.329008 0.0880388,-0.221383 0.135125,-0.644959 0.135125,-1.2735l0 -1.67076 3.29166 0 0 0.934597c0,0.781864 -0.0468881,1.38429 -0.134927,1.8045 -0.0880388,0.420212 -0.296364,0.866342 -0.622009,1.34511 -0.328612,0.475608 -0.742296,0.833896 -1.24402,1.0715 -0.498557,0.241167 -1.12947,0.358288 -1.88621,0.358288 -0.733591,0 -1.37895,-0.117121 -1.94239,-0.35176 -0.560283,-0.234441 -0.997312,-0.55692 -1.30832,-0.96724 -0.313972,-0.41032 -0.531003,-0.863176 -0.65129,-1.35501 -0.120287,-0.494996 -0.179243,-1.21157 -0.179243,-2.1529l0 -3.69348c0,-1.10731 0.135125,-1.98018 0.402209,-2.61861 0.269854,-0.63843 0.712818,-1.13026 1.32592,-1.46896 0.613304,-0.341868 1.31722,-0.511417 2.11254,-0.511417 0.973769,0 1.77779,0.205358 2.41147,0.615678 0.633682,0.41032 1.07665,0.954381 1.33186,1.63179 0.255412,0.677404 0.384403,1.62842 0.384403,2.85642l0 1.68065zm-3.48258 -2.06169l0 -0.9251c0,-0.654653 -0.0322479,-1.07803 -0.0937762,-1.27013 -0.0644959,-0.188937 -0.193685,-0.28667 -0.387371,-0.28667 -0.240376,0 -0.389943,0.0815101 -0.445734,0.244333 -0.0587585,0.162822 -0.0880388,0.599258 -0.0880388,1.31247l0 0.9251 1.01492 0z"/>
  <path class="fil3" d="M20.5621 78.8717l0 2.82298c0,0.114154 0.148776,0.17133 0.446723,0.17133l1.30851 0c0.515571,0 0.984452,-0.129783 1.40704,-0.389151 0.370159,-0.234638 0.556326,-0.597675 0.556326,-1.08555 0,-0.554348 -0.148974,-0.940532 -0.446723,-1.15816 -0.357299,-0.240969 -0.861594,-0.361454 -1.51664,-0.361454l-1.75524 0zm1.87612 3.28454l-3.66459 0 0 -0.290231 0.565823 0c0.292012,0 0.437227,-0.0571758 0.437227,-0.17133l0 -5.86358c0,-0.126618 -0.145215,-0.189926 -0.437227,-0.189926l-0.565823 0 0 -0.281131 5.67089 0 0.184189 1.40229 -0.271832 0c-0.0724095,-0.392317 -0.213865,-0.680966 -0.42595,-0.867924 -0.202984,-0.169747 -0.469079,-0.253235 -0.794724,-0.253235l-2.12737 0c-0.297947,0 -0.446723,0.0633088 -0.446723,0.189926l0 2.74107 1.87612 0c0.93064,0 1.59875,0.157481 2.0063,0.471057 0.41309,0.288649 0.621416,0.724095 0.621416,1.30317 0,0.560679 -0.223164,0.997708 -0.666128,1.31109 -0.487478,0.331976 -1.14094,0.498755 -1.96158,0.498755z"/>
  <path id="1" class="fil3" d="M31.2916 75.3601l4.66764 0 0.217624 1.76513 -0.217624 0c-0.355519,-0.512604 -0.744472,-0.898788 -1.16686,-1.15816 -0.362839,-0.217822 -1.04954,-0.325843 -2.06031,-0.325843 -0.545445,0 -0.854471,0.0385788 -0.926881,0.117319 -0.0724095,0.0726073 -0.109603,0.165196 -0.109603,0.281131l0 2.46924 1.74554 0c0.160053,0 0.290429,-0.0664743 0.392713,-0.199225 0.115341,-0.139082 0.17311,-0.446327 0.17311,-0.921935l0.349781 0 0 2.60516 -0.349781 0c0,-0.518935 -0.0577693,-0.853878 -0.17311,-1.00384 -0.102283,-0.132751 -0.23266,-0.199225 -0.392713,-0.199225l-1.74554 0 0 2.64235c0,0.114154 0.0500535,0.216041 0.152535,0.307246 0.102283,0.0848734 0.502316,0.126618 1.2003,0.126618 1.01077,-0.02473 1.649,-0.145215 1.91885,-0.361256 0.385195,-0.236419 0.744472,-0.606973 1.07942,-1.11344l0.228901 0 -0.316346 1.76493 -6.0634 0 0 -0.290231c0.377677,0 0.632495,-0.02473 0.762871,-0.0726073 0.160053,-0.0540103 0.240178,-0.174495 0.240178,-0.361256l0 -5.39253c0,-0.0912043 -0.0354134,-0.185376 -0.108021,-0.281131 -0.109603,-0.0787404 -0.407551,-0.117319 -0.895029,-0.117319l0 -0.281131 1.39576 0z"/>
  <path id="12" class="fil3" d="M42.1979 75.3153c0.247498,0.193092 0.480158,0.288847 0.697782,0.288847 0.0876432,0 0.316544,-0.0540103 0.686703,-0.162229 0.327623,-0.108021 0.621614,-0.163614 0.882367,-0.163614 0.734976,0 1.36055,0.172912 1.87592,0.515769 0.385392,0.308828 0.57888,0.682548 0.57888,1.12254 0,0.45246 -0.130377,0.810749 -0.392713,1.07645 -0.290231,0.265501 -0.701541,0.458593 -1.23215,0.579078 0.560283,0.0726073 1.01077,0.240969 1.35125,0.506471 0.377875,0.313577 0.567603,0.688681 0.567603,1.12274 0,0.771972 -0.320105,1.31405 -0.960316,1.62902 -0.485697,0.264117 -1.11107,0.397065 -1.87414,0.397065 -0.837457,0 -1.49073,-0.162229 -1.96356,-0.488071 -0.662566,-0.440194 -0.99197,-0.974362 -0.99197,-1.60132 0,-0.186959 0.0464924,-0.335141 0.141456,-0.44336 0.0949632,-0.120287 0.217822,-0.180628 0.370357,-0.180628 0.130377,0 0.23998,0.0356112 0.327623,0.108219 0.102283,0.0601434 0.152535,0.132751 0.152535,0.217624 0,0.137499 -0.0724095,0.240969 -0.217624,0.307443 -0.175088,0.114154 -0.262534,0.253235 -0.262534,0.415266 0,0.284098 0.206743,0.582243 0.621614,0.895622 0.407748,0.325843 0.98465,0.489654 1.73466,0.489654 0.690462,0 1.21711,-0.154513 1.58015,-0.461759 0.372137,-0.331976 0.556326,-0.759706 0.556326,-1.28477 0,-0.489654 -0.145017,-0.847943 -0.435446,-1.07645 -0.357299,-0.271832 -0.81886,-0.407551 -1.38468,-0.407551l-1.26558 0 0 -0.290429 1.07961 0c0.537729,0 0.967636,-0.1466 1.28596,-0.443162 0.284692,-0.253235 0.426148,-0.596092 0.426148,-1.03154 0,-0.458593 -0.17133,-0.798483 -0.511812,-1.02224 -0.327623,-0.216239 -0.75753,-0.325843 -1.28774,-0.325843 -0.500733,0 -0.93064,0.115736 -1.28616,0.344242 -0.349781,0.199225 -0.7053,0.603808 -1.06834,1.21236l-0.219602 -0.0726073 0.437424 -1.77285z"/>
  <path id="123" class="fil3" d="M55.088 75.3601l6.07468 0 0.249279 1.83774 -0.249279 0.0356112c-0.197247,-0.554546 -0.456021,-0.952798 -0.774148,-1.19377 -0.349979,-0.265699 -0.807583,-0.39845 -1.37538,-0.39845l-1.4834 0c-0.290429,0 -0.435644,0.0633088 -0.435644,0.189926l0 5.86358c0,0.114154 0.145215,0.17133 0.435644,0.17133l0.666325 0 0 0.290231 -3.10807 0 0 -0.290231 0.796504 0c0.282911,0 0.424367,-0.0571758 0.424367,-0.17133l0 -5.86358c0,-0.126618 -0.141456,-0.189926 -0.424367,-0.189926l-0.796504 0 0 -0.281131z"/>
  <path id="1234" class="fil3" d="M67.8255 75.3601l2.31137 0c0.413288,0.02473 0.835677,0.0943697 1.26558,0.208523 0.46532,0.151348 0.813321,0.379853 1.04598,0.687296 0.182409,0.247102 0.273613,0.572747 0.273613,0.977528 0,0.367389 -0.12088,0.705696 -0.361058,1.01294 -0.290429,0.313379 -0.664545,0.521902 -1.12235,0.625373 -0.414871,0.0896216 -0.898788,0.134333 -1.45155,0.134333l-1.56887 0 0 2.42611c0,0.114154 0.0425356,0.216041 0.130179,0.307246 0.0947654,0.0848734 0.431687,0.126618 1.01433,0.126618l0 0.290231 -3.02062 0 0 -0.290231c0.407551,0 0.683142,-0.02473 0.828159,-0.0726073 0.174891,-0.0540103 0.262534,-0.174495 0.262534,-0.361256l0 -5.39253c0,-0.0912043 -0.0411507,-0.185376 -0.12088,-0.281131 -0.108021,-0.0787404 -0.417047,-0.117319 -0.927079,-0.117319l0 -0.281131 1.44067 0zm0.392713 3.35735l1.18744 0c0.749814,0 1.26914,-0.0664743 1.55957,-0.199225 0.290231,-0.120485 0.522891,-0.29498 0.697782,-0.525068 0.175088,-0.205358 0.262336,-0.481741 0.262336,-0.832313 0,-0.338307 -0.113362,-0.623988 -0.338504,-0.860209 -0.217822,-0.240969 -0.515571,-0.415464 -0.893446,-0.523485 -0.334943,-0.0912043 -0.796702,-0.135916 -1.38468,-0.135916 -0.560283,0 -0.884147,0.0385788 -0.971593,0.117319 -0.0799274,0.0726073 -0.118902,0.165196 -0.118902,0.281131l0 2.67777z"/>
  <path id="12345" class="fil3" d="M81.0527 75.2784l2.60536 6.15382c0.124639,0.186761 0.247498,0.307246 0.372137,0.361256 0.115539,0.0478773 0.325843,0.0726073 0.63289,0.0726073l0 0.290231 -2.79152 0 0 -0.290231c0.508053,0 0.802044,-0.0215646 0.882169,-0.0633088 0.0874453,-0.0417443 0.130179,-0.0787404 0.130179,-0.108021 0,-0.10347 -0.0168164,-0.20239 -0.0540103,-0.299728l-0.774148 -1.80984 -2.96661 0 -0.783447 1.88245c-0.0298739,0.0478773 -0.0449097,0.100503 -0.0449097,0.154513 0,0.0662764 0.0223559,0.114154 0.0652872,0.145017 0.124837,0.0664743 0.491237,0.09892 1.10157,0.09892l0 0.290231 -2.60536 0 0 -0.290231c0.405572,0 0.690462,-0.0447119 0.850515,-0.135916 0.137697,-0.0848734 0.256796,-0.208523 0.35908,-0.370554l2.54066 -5.96231 0.480158 -0.118902zm-1.83141 4.02743l2.71536 0 -1.36411 -3.14882 -1.35125 3.14882z"/>
  <path id="123456" class="fil3" d="M87.8457 75.3601l3.18424 0 0 0.281131c-0.558305,0 -0.912043,0.0263127 -1.05726,0.0803231 -0.137499,0.0726073 -0.206347,0.166779 -0.206347,0.281131l0 2.47063 4.23022 0 0 -2.47063c0,-0.126815 -0.0688484,-0.219405 -0.206545,-0.281131 -0.117121,-0.0540103 -0.46532,-0.0803231 -1.04776,-0.0803231l0 -0.281131 3.1417 0 0 0.281131c-0.495392,0 -0.800461,0.0263127 -0.916,0.0803231 -0.124639,0.0726073 -0.18597,0.166779 -0.18597,0.281131l0 5.39233c0,0.157679 0.0464924,0.268865 0.141456,0.335141 0.175088,0.0912043 0.494996,0.135916 0.960514,0.135916l0 0.290231 -3.1417 0 0 -0.290231c0.480158,0 0.807781,-0.0324458 0.982672,-0.09892 0.18043,-0.0617261 0.271634,-0.185178 0.271634,-0.372137l0 -2.64215 -4.23022 0 0 2.64215c0,0.157679 0.0575715,0.268865 0.17311,0.335141 0.189729,0.0912043 0.552567,0.135916 1.09049,0.135916l0 0.290231 -3.18424 0 0 -0.290231c0.437227,0 0.731217,-0.0324458 0.88395,-0.09892 0.174891,-0.0617261 0.262336,-0.185178 0.262336,-0.372137l0 -5.39233c0,-0.126815 -0.0650894,-0.219405 -0.197247,-0.281131 -0.107823,-0.0540103 -0.424169,-0.0803231 -0.949039,-0.0803231l0 -0.281131z"/>
  <path id="1234567" class="fil3" d="M99.0569 75.3601l3.09679 0 0 0.281131 -0.915604 0c-0.204764,0 -0.305069,0.0633088 -0.305069,0.189926l0 5.60105 4.28423 -5.79098 -1.09999 0 0 -0.281131 2.93337 0 0 0.281131 -0.74289 0c-0.210304,0 -0.316346,0.0633088 -0.316346,0.189926l0 5.86358c0,0.114154 0.106042,0.17133 0.316346,0.17133l0.74289 0 0 0.290231 -2.93337 0 0 -0.290231 0.785425 0c0.210304,0 0.314566,-0.0571758 0.314566,-0.17133l0 -5.58404 -4.28423 5.75537 1.22067 0 0 0.290231 -3.09679 0 0 -0.290231 0.785425 0c0.210304,0 0.316346,-0.0571758 0.316346,-0.17133l0 -5.86358c0,-0.126618 -0.106042,-0.189926 -0.316346,-0.189926l-0.785425 0 0 -0.281131z"/>
  <path id="12345678" class="fil3" d="M110.965 75.3601l2.74859 0 0 0.281131 -0.59906 0c-0.292408,0 -0.437424,0.0633088 -0.437424,0.189926l0 5.86358c0,0.114154 0.145017,0.17133 0.437424,0.17133l2.21284 0c0.290231,0 0.435446,-0.0571758 0.435446,-0.17133l0 -5.86358c0,-0.126618 -0.145215,-0.189926 -0.435446,-0.189926l-0.610535 0 0 -0.281131 2.75809 0 0 0.281131 -0.478179 0c-0.29953,0 -0.448503,0.0633088 -0.448503,0.189926l0 5.86358c0,0.114154 0.148974,0.17133 0.448503,0.17133l0.478179 0 0 1.27548 -0.271437 0c-0.0298739,-0.398252 -0.149171,-0.663951 -0.359475,-0.795119 -0.197049,-0.126815 -0.42595,-0.190124 -0.688484,-0.190124l-5.19053 0 0 -0.290231 0.47996 0c0.290429,0 0.437424,-0.0571758 0.437424,-0.17133l0 -5.86358c0,-0.126618 -0.146995,-0.189926 -0.437424,-0.189926l-0.47996 0 0 -0.281131z"/>
 </g>
</svg>
